<svg version="1.1" xmlns="http://www.w3.org/2000/svg" viewBox="0 0 1385.5642031732946 798.9999999999998" width="1385.5642031732946" height="798.9999999999998" filter="invert(93%) hue-rotate(180deg)">
  <!-- svg-source:excalidraw -->
  
  <defs>
    <style class="style-fonts">
      @font-face {
        font-family: "Virgil";
        src: url("https://excalidraw.com/Virgil.woff2");
      }
      @font-face {
        font-family: "Cascadia";
        src: url("https://excalidraw.com/Cascadia.woff2");
      }
      @font-face {
        font-family: "Assistant";
        src: url("https://excalidraw.com/Assistant-Regular.woff2");
      }
    </style>
    
  </defs>
  <rect x="0" y="0" width="1385.5642031732946" height="798.9999999999998" fill="#ffffff"></rect><g stroke-linecap="round" transform="translate(12.042802115529753 10) rotate(0 305.5 388.4999999999999)"><path d="M0 0 C187.57 0.13, 375.66 -0.03, 611 0 M0 0 C210.92 0.63, 421.74 1.04, 611 0 M611 0 C610.73 197.76, 612.24 394.61, 611 777 M611 0 C610.19 238.6, 610.19 476.7, 611 777 M611 777 C388.3 778.79, 164.46 779.33, 0 777 M611 777 C458.22 779.24, 305.87 779.06, 0 777 M0 777 C-1.48 561.65, -1.19 346.71, 0 0 M0 777 C-1.58 474.94, -1.72 172.08, 0 0" stroke="#1e1e1e" stroke-width="2" fill="none"></path></g><g stroke-linecap="round" transform="translate(14.042802115529753 13) rotate(0 304 33.5)"><path d="M0 0 C132.15 0.08, 262.85 0.17, 608 0 M0 0 C209.99 0.38, 419.47 0.69, 608 0 M608 0 C606.81 16.68, 607.34 34.33, 608 67 M608 0 C606.77 14.35, 606.62 26.81, 608 67 M608 67 C406.99 68.29, 204.92 68.16, 0 67 M608 67 C384.74 66.84, 161.64 66.55, 0 67 M0 67 C0.06 43.5, -0.63 19.32, 0 0 M0 67 C0.73 52.17, -0.5 36.31, 0 0" stroke="#1e1e1e" stroke-width="2" fill="none"></path></g><g stroke-linecap="round" transform="translate(15.042802115529753 83) rotate(0 304 76)"><path d="M0 0 C171.67 1.74, 342.73 1.44, 608 0 M0 0 C192.47 -1.54, 385.72 -1.48, 608 0 M608 0 C609.26 32.02, 607.18 62.63, 608 152 M608 0 C607.8 59.28, 608.25 119.31, 608 152 M608 152 C401.69 152.05, 194.52 151.98, 0 152 M608 152 C473.9 152.08, 339.78 152.21, 0 152 M0 152 C-1.19 112.85, -1.88 68.74, 0 0 M0 152 C-1.28 109.36, -2.04 66.98, 0 0" stroke="#1e1e1e" stroke-width="2" fill="none"></path></g><g transform="translate(205.68287016972897 139) rotate(0 113.35993194580078 20)"><text x="113.35993194580078" y="0" font-family="Virgil, Segoe UI Emoji" font-size="16px" fill="#1e1e1e" text-anchor="middle" style="white-space: pre;" direction="ltr" dominant-baseline="text-before-edge">FOTO PORTADA</text><text x="113.35993194580078" y="20" font-family="Virgil, Segoe UI Emoji" font-size="16px" fill="#1e1e1e" text-anchor="middle" style="white-space: pre;" direction="ltr" dominant-baseline="text-before-edge">QUIEN ES OSCAR RAMIREZ</text></g><g stroke-linecap="round"><g transform="translate(11.042802115529753 235) rotate(0 305.5 0.5)"><path d="M-1.04 0.5 C100.96 0.72, 508.82 0.04, 610.95 0.26 M0.61 -0.28 C102.54 0.18, 508.19 1.38, 609.98 1.4" stroke="#1971c2" stroke-width="2" fill="none"></path></g></g><mask></mask><g transform="translate(214.04280211552975 266) rotate(0 89.18394470214844 10)"><text x="0" y="0" font-family="Virgil, Segoe UI Emoji" font-size="16px" fill="#1971c2" text-anchor="start" style="white-space: pre;" direction="ltr" dominant-baseline="text-before-edge">Oscar Ramirez, titulos</text></g><g stroke-linecap="round" transform="translate(40.04280211552975 297) rotate(0 76.5 128)"><path d="M0 0 C32.08 1.11, 60.76 -1.17, 153 0 M0 0 C33.08 -1.39, 68.8 -0.85, 153 0 M153 0 C153.57 86.01, 153.74 170.15, 153 256 M153 0 C152.4 93.55, 153.12 185.28, 153 256 M153 256 C110.23 255.21, 68.73 255.28, 0 256 M153 256 C121.15 255.36, 89.7 254, 0 256 M0 256 C-2.31 153.94, 0.48 52.44, 0 0 M0 256 C-0.73 187.67, -1.06 120.28, 0 0" stroke="#1e1e1e" stroke-width="2" fill="none"></path></g><g transform="translate(93.90281035527585 415) rotate(0 22.639991760253906 10)"><text x="22.639991760253906" y="0" font-family="Virgil, Segoe UI Emoji" font-size="16px" fill="#1e1e1e" text-anchor="middle" style="white-space: pre;" direction="ltr" dominant-baseline="text-before-edge">FOTO</text></g><g stroke-linecap="round"><g transform="translate(41.04280211552975 553) rotate(0 74.5 0)"><path d="M0 0 C39.42 2.05, 80.41 1.49, 149 0 M0 0 C41.6 0.72, 85.69 0.54, 149 0" stroke="#1971c2" stroke-width="2" fill="none"></path></g></g><mask></mask><g transform="translate(47.04280211552975 566) rotate(0 68.84795379638672 10)"><text x="0" y="0" font-family="Virgil, Segoe UI Emoji" font-size="16px" fill="#1e1e1e" text-anchor="start" style="white-space: pre;" direction="ltr" dominant-baseline="text-before-edge">OSCAR RAMIREZ</text></g><g transform="translate(85.04280211552975 595) rotate(0 25.519981384277344 10)"><text x="0" y="0" font-family="Virgil, Segoe UI Emoji" font-size="16px" fill="#1e1e1e" text-anchor="start" style="white-space: pre;" direction="ltr" dominant-baseline="text-before-edge">FRASE</text></g><g transform="translate(232.04280211552975 307) rotate(0 60.89595031738281 190)"><text x="0" y="0" font-family="Virgil, Segoe UI Emoji" font-size="16px" fill="#1e1e1e" text-anchor="start" style="white-space: pre;" direction="ltr" dominant-baseline="text-before-edge">CREADOR DE...</text><text x="0" y="20" font-family="Virgil, Segoe UI Emoji" font-size="16px" fill="#1e1e1e" text-anchor="start" style="white-space: pre;" direction="ltr" dominant-baseline="text-before-edge"></text><text x="0" y="40" font-family="Virgil, Segoe UI Emoji" font-size="16px" fill="#1e1e1e" text-anchor="start" style="white-space: pre;" direction="ltr" dominant-baseline="text-before-edge">Descripción</text><text x="0" y="60" font-family="Virgil, Segoe UI Emoji" font-size="16px" fill="#1e1e1e" text-anchor="start" style="white-space: pre;" direction="ltr" dominant-baseline="text-before-edge"></text><text x="0" y="80" font-family="Virgil, Segoe UI Emoji" font-size="16px" fill="#1e1e1e" text-anchor="start" style="white-space: pre;" direction="ltr" dominant-baseline="text-before-edge">TRAYECTORIA</text><text x="0" y="100" font-family="Virgil, Segoe UI Emoji" font-size="16px" fill="#1e1e1e" text-anchor="start" style="white-space: pre;" direction="ltr" dominant-baseline="text-before-edge"></text><text x="0" y="120" font-family="Virgil, Segoe UI Emoji" font-size="16px" fill="#1e1e1e" text-anchor="start" style="white-space: pre;" direction="ltr" dominant-baseline="text-before-edge">Descripción</text><text x="0" y="140" font-family="Virgil, Segoe UI Emoji" font-size="16px" fill="#1e1e1e" text-anchor="start" style="white-space: pre;" direction="ltr" dominant-baseline="text-before-edge"></text><text x="0" y="160" font-family="Virgil, Segoe UI Emoji" font-size="16px" fill="#1e1e1e" text-anchor="start" style="white-space: pre;" direction="ltr" dominant-baseline="text-before-edge">FORTALEZA 1</text><text x="0" y="180" font-family="Virgil, Segoe UI Emoji" font-size="16px" fill="#1e1e1e" text-anchor="start" style="white-space: pre;" direction="ltr" dominant-baseline="text-before-edge"></text><text x="0" y="200" font-family="Virgil, Segoe UI Emoji" font-size="16px" fill="#1e1e1e" text-anchor="start" style="white-space: pre;" direction="ltr" dominant-baseline="text-before-edge">Descripción</text><text x="0" y="220" font-family="Virgil, Segoe UI Emoji" font-size="16px" fill="#1e1e1e" text-anchor="start" style="white-space: pre;" direction="ltr" dominant-baseline="text-before-edge"></text><text x="0" y="240" font-family="Virgil, Segoe UI Emoji" font-size="16px" fill="#1e1e1e" text-anchor="start" style="white-space: pre;" direction="ltr" dominant-baseline="text-before-edge">FORTALEZA 2</text><text x="0" y="260" font-family="Virgil, Segoe UI Emoji" font-size="16px" fill="#1e1e1e" text-anchor="start" style="white-space: pre;" direction="ltr" dominant-baseline="text-before-edge"></text><text x="0" y="280" font-family="Virgil, Segoe UI Emoji" font-size="16px" fill="#1e1e1e" text-anchor="start" style="white-space: pre;" direction="ltr" dominant-baseline="text-before-edge">Descripción</text><text x="0" y="300" font-family="Virgil, Segoe UI Emoji" font-size="16px" fill="#1e1e1e" text-anchor="start" style="white-space: pre;" direction="ltr" dominant-baseline="text-before-edge"></text><text x="0" y="320" font-family="Virgil, Segoe UI Emoji" font-size="16px" fill="#1e1e1e" text-anchor="start" style="white-space: pre;" direction="ltr" dominant-baseline="text-before-edge">PROPÓSITO</text><text x="0" y="340" font-family="Virgil, Segoe UI Emoji" font-size="16px" fill="#1e1e1e" text-anchor="start" style="white-space: pre;" direction="ltr" dominant-baseline="text-before-edge"></text><text x="0" y="360" font-family="Virgil, Segoe UI Emoji" font-size="16px" fill="#1e1e1e" text-anchor="start" style="white-space: pre;" direction="ltr" dominant-baseline="text-before-edge">Descripción</text></g><g stroke-linecap="round" transform="translate(14.042802115529753 706) rotate(0 303 40)"><path d="M0 0 C131.56 -1.63, 262.19 -1.6, 606 0 M0 0 C241.41 -2.14, 482.39 -2.72, 606 0 M606 0 C608.42 15.58, 607.9 31.17, 606 80 M606 0 C604.91 19.64, 605.91 38.67, 606 80 M606 80 C466.22 81.2, 326.03 80.82, 0 80 M606 80 C427.55 80.55, 249.1 80.42, 0 80 M0 80 C-0.68 54.76, 2.01 29.94, 0 0 M0 80 C0.77 62.65, 0.57 44.55, 0 0" stroke="#1e1e1e" stroke-width="2" fill="none"></path></g><g transform="translate(269.73083617314694 726) rotate(0 47.31196594238281 20)"><text x="47.31196594238281" y="0" font-family="Virgil, Segoe UI Emoji" font-size="16px" fill="#1e1e1e" text-anchor="middle" style="white-space: pre;" direction="ltr" dominant-baseline="text-before-edge">LOGO</text><text x="47.31196594238281" y="20" font-family="Virgil, Segoe UI Emoji" font-size="16px" fill="#1e1e1e" text-anchor="middle" style="white-space: pre;" direction="ltr" dominant-baseline="text-before-edge">COPYRIGHT</text></g><g stroke-linecap="round" transform="translate(764.5642031732945 12) rotate(0 305.5 388.4999999999999)"><path d="M0 0 C122.72 1.88, 246.67 2.35, 611 0 M0 0 C142.75 0.9, 286.07 0.45, 611 0 M611 0 C609.81 283.64, 609.75 566.48, 611 777 M611 0 C612.42 256.51, 612.97 513.62, 611 777 M611 777 C408.25 775.69, 206.88 775.9, 0 777 M611 777 C412.06 775.77, 213.47 775.52, 0 777 M0 777 C2.5 570.4, 1.58 365.54, 0 0 M0 777 C-0.34 541.62, -0.52 306.31, 0 0" stroke="#1e1e1e" stroke-width="2" fill="none"></path></g><g stroke-linecap="round" transform="translate(766.5642031732945 15) rotate(0 304 33.5)"><path d="M0 0 C127.75 1.09, 255.59 1.12, 608 0 M0 0 C161.4 -0.74, 322.87 -0.54, 608 0 M608 0 C608.9 24.38, 608.88 49.33, 608 67 M608 0 C608.21 20.88, 607.85 43.27, 608 67 M608 67 C440.52 64.23, 271.87 64.15, 0 67 M608 67 C459.92 67.79, 311.58 67.67, 0 67 M0 67 C-1.03 41.44, -0.58 15.32, 0 0 M0 67 C-0.21 42.73, 0.09 19.81, 0 0" stroke="#1e1e1e" stroke-width="2" fill="none"></path></g><g transform="translate(973.3142031732945 42.25) rotate(0 87.64794921875 10)"><text x="0" y="0" font-family="Virgil, Segoe UI Emoji" font-size="16px" fill="#1e1e1e" text-anchor="start" style="white-space: pre;" direction="ltr" dominant-baseline="text-before-edge">SOY OSCAR RAMIREZ</text></g><g transform="translate(1169.5642031732946 44) rotate(0 30.311981201171875 10)"><text x="0" y="0" font-family="Virgil, Segoe UI Emoji" font-size="16px" fill="#1971c2" text-anchor="start" style="white-space: pre;" direction="ltr" dominant-baseline="text-before-edge">CLASES</text></g><g stroke-linecap="round" transform="translate(786.5642031732945 28.5) rotate(0 29.875 20.5)"><path d="M10.25 0 C23.28 0.68, 33.76 1.52, 49.5 0 M10.25 0 C20.69 0.16, 30.13 0.15, 49.5 0 M49.5 0 C57.43 0.37, 58.36 1.45, 59.75 10.25 M49.5 0 C57.89 -1.07, 60.47 4.76, 59.75 10.25 M59.75 10.25 C61.36 14.6, 60.17 20.07, 59.75 30.75 M59.75 10.25 C59.83 14.99, 59.33 19.68, 59.75 30.75 M59.75 30.75 C61.52 39.49, 54.4 40.61, 49.5 41 M59.75 30.75 C60.31 37.65, 56.8 42.29, 49.5 41 M49.5 41 C34.07 42.26, 21.35 39.32, 10.25 41 M49.5 41 C38.59 41.29, 29.09 41.97, 10.25 41 M10.25 41 C3.3 42.93, 0.74 37.32, 0 30.75 M10.25 41 C1.66 40.09, 0.8 37.94, 0 30.75 M0 30.75 C1.94 23.24, -0.44 18.66, 0 10.25 M0 30.75 C0.09 26.4, -0.57 20.93, 0 10.25 M0 10.25 C-1.48 1.98, 4.59 -1.12, 10.25 0 M0 10.25 C-1.5 3.39, 2.35 2.04, 10.25 0" stroke="#1e1e1e" stroke-width="2" fill="none"></path></g><g transform="translate(793.7192095819859 39) rotate(0 22.719993591308594 10)"><text x="22.719993591308594" y="0" font-family="Virgil, Segoe UI Emoji" font-size="16px" fill="#1e1e1e" text-anchor="middle" style="white-space: pre;" direction="ltr" dominant-baseline="text-before-edge">LOGO</text></g><g stroke-linecap="round" transform="translate(767.5642031732945 85) rotate(0 304 76)"><path d="M0 0 C195.71 -1.09, 392.5 -1.11, 608 0 M0 0 C201.98 -0.67, 403.24 -1.14, 608 0 M608 0 C608.46 55.44, 606.42 109.97, 608 152 M608 0 C606.24 57.98, 606.64 117.45, 608 152 M608 152 C415.96 151.86, 225.57 150.37, 0 152 M608 152 C437.49 152.29, 267.11 151.95, 0 152 M0 152 C1.71 100.34, -0.23 51.73, 0 0 M0 152 C1.04 94.46, 1.11 36.6, 0 0" stroke="#1e1e1e" stroke-width="2" fill="none"></path></g><g transform="translate(1005.2362383905796 141) rotate(0 66.32796478271484 20)"><text x="66.32796478271484" y="0" font-family="Virgil, Segoe UI Emoji" font-size="16px" fill="#1e1e1e" text-anchor="middle" style="white-space: pre;" direction="ltr" dominant-baseline="text-before-edge">FOTO PORTADA</text><text x="66.32796478271484" y="20" font-family="Virgil, Segoe UI Emoji" font-size="16px" fill="#1e1e1e" text-anchor="middle" style="white-space: pre;" direction="ltr" dominant-baseline="text-before-edge">CLASES</text></g><g stroke-linecap="round"><g transform="translate(763.5642031732945 237) rotate(0 305.5 0.5)"><path d="M0.68 0.38 C102.42 0.53, 509.33 1.23, 611.16 1.37 M-0.42 -0.46 C101.11 -0.73, 508.35 -1.08, 610.29 -0.56" stroke="#1971c2" stroke-width="2" fill="none"></path></g></g><mask></mask><g transform="translate(1024.0642031732946 263) rotate(0 30.655967712402344 10)"><text x="0" y="0" font-family="Virgil, Segoe UI Emoji" font-size="16px" fill="#1e1e1e" text-anchor="start" style="white-space: pre;" direction="ltr" dominant-baseline="text-before-edge">INDICE</text></g><g stroke-linecap="round"><g transform="translate(787.3142031732945 287.5) rotate(0 281.375 -0.625)"><path d="M0 0 C129.23 -1.56, 259.67 -2.29, 562.75 -1.25 M0 0 C144.01 -2.14, 288.23 -2.78, 562.75 -1.25" stroke="#1971c2" stroke-width="2" fill="none"></path></g></g><mask></mask><g stroke-linecap="round" transform="translate(766.5642031732945 708) rotate(0 303 40)"><path d="M0 0 C126.21 0.99, 251.56 1.32, 606 0 M0 0 C203.81 0.4, 408.25 1.01, 606 0 M606 0 C605.9 16.68, 606.97 34, 606 80 M606 0 C606.8 22.29, 605.33 43.07, 606 80 M606 80 C440.52 78.03, 275.61 78.09, 0 80 M606 80 C365.4 79.53, 125.55 79.75, 0 80 M0 80 C2.13 55.7, -0.24 34.32, 0 0 M0 80 C0.49 61.24, -0.18 41.37, 0 0" stroke="#1e1e1e" stroke-width="2" fill="none"></path></g><g transform="translate(1022.2522372309116 728) rotate(0 47.31196594238281 20)"><text x="47.31196594238281" y="0" font-family="Virgil, Segoe UI Emoji" font-size="16px" fill="#1e1e1e" text-anchor="middle" style="white-space: pre;" direction="ltr" dominant-baseline="text-before-edge">LOGO</text><text x="47.31196594238281" y="20" font-family="Virgil, Segoe UI Emoji" font-size="16px" fill="#1e1e1e" text-anchor="middle" style="white-space: pre;" direction="ltr" dominant-baseline="text-before-edge">COPYRIGHT</text></g><g stroke-linecap="round" transform="translate(1257.2928021155299 35.875) rotate(0 13.125 13.125)"><path d="M16.25 0.77 C18.92 1.22, 22.46 3.07, 24.05 5.21 C25.64 7.35, 26.08 10.72, 25.79 13.61 C25.51 16.49, 24.09 20.4, 22.33 22.53 C20.57 24.65, 17.91 26.05, 15.22 26.36 C12.53 26.67, 8.62 25.95, 6.19 24.39 C3.75 22.84, 1.5 19.83, 0.59 17.03 C-0.33 14.23, -0.33 10.26, 0.71 7.6 C1.75 4.94, 4.14 2.26, 6.81 1.08 C9.48 -0.11, 15.04 0.51, 16.73 0.48 C18.42 0.45, 17.13 0.74, 16.93 0.9 M15.37 0.63 C18.13 0.96, 21.43 3, 23.33 5.14 C25.24 7.28, 26.79 10.79, 26.8 13.47 C26.8 16.16, 25.24 19.25, 23.35 21.25 C21.46 23.24, 18.14 24.8, 15.44 25.44 C12.74 26.07, 9.49 26.31, 7.16 25.06 C4.82 23.81, 2.36 20.75, 1.41 17.95 C0.45 15.15, 0.51 10.88, 1.44 8.27 C2.37 5.67, 4.53 3.56, 6.98 2.34 C9.44 1.12, 14.85 1.34, 16.18 0.94 C17.51 0.55, 15.18 -0.12, 14.97 -0.03" stroke="#e03131" stroke-width="2" fill="none"></path></g><g stroke-linecap="round" transform="translate(1292.9178021155299 36.5) rotate(0 13.125 13.125)"><path d="M12.54 0.2 C15.18 -0.12, 19.36 0.9, 21.61 2.63 C23.87 4.37, 25.63 7.74, 26.06 10.62 C26.49 13.49, 25.53 17.48, 24.18 19.89 C22.83 22.3, 20.49 24.09, 17.95 25.07 C15.42 26.06, 11.59 26.6, 8.96 25.8 C6.34 24.99, 3.64 22.65, 2.21 20.23 C0.79 17.82, -0.01 14.23, 0.42 11.31 C0.85 8.39, 2.65 4.58, 4.79 2.71 C6.93 0.85, 11.84 0.57, 13.25 0.12 C14.67 -0.32, 13.21 -0.18, 13.28 0.05 M14.51 0.79 C17.24 1.03, 21.24 2.31, 23.19 4.11 C25.14 5.9, 26.03 8.85, 26.21 11.57 C26.39 14.3, 25.84 18.05, 24.26 20.45 C22.69 22.84, 19.53 25.18, 16.77 25.95 C14 26.72, 10.27 26.37, 7.67 25.05 C5.07 23.72, 2.43 20.49, 1.15 17.99 C-0.14 15.49, -0.83 12.8, -0.03 10.06 C0.78 7.31, 3.61 3.26, 5.99 1.54 C8.37 -0.18, 12.94 -0.11, 14.27 -0.27 C15.61 -0.42, 13.9 0.46, 13.99 0.61" stroke="#e03131" stroke-width="2" fill="none"></path></g><g stroke-linecap="round" transform="translate(1329.1678021155299 35.25) rotate(0 13.125 13.125)"><path d="M9.48 0.06 C12.02 -0.87, 16.04 -0.3, 18.59 0.95 C21.14 2.21, 23.54 4.88, 24.8 7.58 C26.05 10.29, 26.91 14.5, 26.11 17.18 C25.32 19.86, 22.39 22.21, 20.03 23.66 C17.68 25.1, 14.75 26.07, 11.96 25.83 C9.18 25.59, 5.34 24.23, 3.34 22.2 C1.35 20.17, 0.11 16.38, 0.01 13.65 C-0.09 10.91, 1.08 8.01, 2.73 5.79 C4.37 3.58, 8.55 1.16, 9.9 0.36 C11.25 -0.45, 10.75 0.76, 10.81 0.95 M12.31 0 C14.79 -0.35, 18.38 0.53, 20.74 2.31 C23.1 4.1, 25.73 7.83, 26.47 10.7 C27.21 13.57, 26.6 17.11, 25.18 19.55 C23.76 21.99, 20.51 24.26, 17.94 25.35 C15.36 26.44, 12.33 26.99, 9.73 26.1 C7.14 25.22, 3.94 22.62, 2.36 20.02 C0.77 17.42, -0.16 13.2, 0.24 10.51 C0.63 7.82, 2.68 5.57, 4.75 3.88 C6.81 2.19, 11.21 0.88, 12.62 0.35 C14.03 -0.18, 13.22 0.42, 13.2 0.69" stroke="#e03131" stroke-width="2" fill="none"></path></g><g transform="translate(218.3660026444121 36.625) rotate(0 87.64794921875 10)"><text x="0" y="0" font-family="Virgil, Segoe UI Emoji" font-size="16px" fill="#1971c2" text-anchor="start" style="white-space: pre;" direction="ltr" dominant-baseline="text-before-edge">SOY OSCAR RAMIREZ</text></g><g transform="translate(414.6160026444121 38.375) rotate(0 30.311981201171875 10)"><text x="0" y="0" font-family="Virgil, Segoe UI Emoji" font-size="16px" fill="#1e1e1e" text-anchor="start" style="white-space: pre;" direction="ltr" dominant-baseline="text-before-edge">CLASES</text></g><g stroke-linecap="round" transform="translate(31.616002644412106 22.875) rotate(0 29.875 20.5)"><path d="M10.25 0 C21.33 1.5, 30.09 1.8, 49.5 0 M10.25 0 C20.39 -0.57, 29.64 0.32, 49.5 0 M49.5 0 C57.76 1.67, 61.25 3.68, 59.75 10.25 M49.5 0 C54.81 2.02, 58.3 5.21, 59.75 10.25 M59.75 10.25 C61.04 16.72, 58.99 26.18, 59.75 30.75 M59.75 10.25 C60.59 18.81, 59.33 25.22, 59.75 30.75 M59.75 30.75 C59.15 39.17, 57.88 40.69, 49.5 41 M59.75 30.75 C61.88 37.72, 56.39 42.17, 49.5 41 M49.5 41 C36.41 41.43, 26.66 41.04, 10.25 41 M49.5 41 C39.99 41.9, 30.12 40.67, 10.25 41 M10.25 41 C3.56 40.91, -0.69 37.23, 0 30.75 M10.25 41 C4.01 40.86, -0.8 39.43, 0 30.75 M0 30.75 C1.22 25.67, -0.22 16.4, 0 10.25 M0 30.75 C0.08 25.16, 0.98 20.06, 0 10.25 M0 10.25 C0.39 3.08, 5.06 0.25, 10.25 0 M0 10.25 C0.28 2.96, 5.07 2.01, 10.25 0" stroke="#1e1e1e" stroke-width="2" fill="none"></path></g><g transform="translate(38.77100905310351 33.375) rotate(0 22.719993591308594 10)"><text x="22.719993591308594" y="0" font-family="Virgil, Segoe UI Emoji" font-size="16px" fill="#1e1e1e" text-anchor="middle" style="white-space: pre;" direction="ltr" dominant-baseline="text-before-edge">LOGO</text></g><g stroke-linecap="round" transform="translate(502.3446015866474 30.25) rotate(0 13.125 13.125)"><path d="M11.16 -0.34 C13.78 -0.81, 17.91 0.73, 20.38 2.36 C22.86 3.99, 25.2 6.9, 26.03 9.46 C26.86 12.02, 26.41 15.23, 25.35 17.72 C24.3 20.22, 22.14 22.96, 19.71 24.41 C17.28 25.85, 13.64 26.98, 10.77 26.41 C7.9 25.84, 4.21 23.36, 2.47 21 C0.74 18.65, 0.24 15.05, 0.36 12.27 C0.49 9.49, 1.25 6.27, 3.22 4.31 C5.2 2.36, 10.63 1.15, 12.21 0.54 C13.78 -0.08, 12.66 0.52, 12.67 0.61 M11.47 0.08 C14.22 -0.64, 18.08 0.33, 20.42 1.82 C22.76 3.32, 24.66 6.38, 25.49 9.06 C26.32 11.73, 26.25 15.41, 25.38 17.88 C24.52 20.36, 22.73 22.54, 20.31 23.9 C17.89 25.26, 13.73 26.53, 10.84 26.07 C7.94 25.61, 4.68 23.25, 2.93 21.14 C1.18 19.03, 0.29 16.08, 0.34 13.42 C0.4 10.76, 1.49 7.47, 3.26 5.2 C5.03 2.93, 9.67 0.61, 10.95 -0.19 C12.24 -0.98, 11 0.16, 10.99 0.42" stroke="#e03131" stroke-width="2" fill="none"></path></g><g stroke-linecap="round" transform="translate(537.9696015866474 30.875) rotate(0 13.125 13.125)"><path d="M13.36 0.36 C16.13 0.32, 19.81 1.73, 21.94 3.41 C24.06 5.09, 25.6 7.81, 26.11 10.46 C26.61 13.11, 26.3 16.75, 24.96 19.33 C23.62 21.9, 20.82 24.9, 18.05 25.89 C15.29 26.89, 11.04 26.38, 8.38 25.29 C5.73 24.2, 3.53 21.75, 2.14 19.35 C0.75 16.95, -0.46 13.51, 0.03 10.88 C0.52 8.25, 2.73 5.33, 5.06 3.57 C7.38 1.82, 12.41 0.93, 13.99 0.33 C15.56 -0.26, 14.64 -0.14, 14.51 0 M16.41 0.3 C18.97 0.75, 21.77 3.09, 23.4 5.32 C25.03 7.54, 26.15 11.03, 26.18 13.67 C26.22 16.32, 25.47 19.11, 23.63 21.19 C21.79 23.27, 18.03 25.67, 15.12 26.13 C12.21 26.58, 8.52 25.35, 6.17 23.94 C3.82 22.53, 1.88 20.16, 1.03 17.65 C0.18 15.14, 0.09 11.62, 1.07 8.88 C2.05 6.14, 4.46 2.67, 6.91 1.22 C9.36 -0.22, 14.35 0.36, 15.77 0.22 C17.19 0.08, 15.43 0.17, 15.41 0.38" stroke="#e03131" stroke-width="2" fill="none"></path></g><g stroke-linecap="round" transform="translate(574.2196015866474 29.625) rotate(0 13.125 13.125)"><path d="M10.53 0.72 C13.06 -0.17, 16.58 -0.08, 19.1 1.07 C21.61 2.22, 24.46 4.91, 25.62 7.63 C26.79 10.34, 27.02 14.64, 26.08 17.36 C25.15 20.07, 22.38 22.51, 20.02 23.91 C17.66 25.31, 14.71 26.08, 11.94 25.78 C9.17 25.48, 5.32 24.01, 3.41 22.1 C1.49 20.19, 0.5 17.09, 0.43 14.34 C0.36 11.59, 1.23 7.99, 2.98 5.6 C4.72 3.2, 9.62 0.84, 10.9 -0.04 C12.18 -0.93, 10.6 -0.04, 10.65 0.29 M12.64 0.39 C15.18 0.15, 18.78 1.43, 21.11 2.98 C23.44 4.54, 26 7.03, 26.61 9.74 C27.22 12.45, 26.21 16.75, 24.77 19.27 C23.33 21.8, 20.52 23.77, 17.97 24.89 C15.42 26, 12.08 26.66, 9.45 25.96 C6.82 25.25, 3.73 23.16, 2.18 20.66 C0.64 18.16, -0.17 13.85, 0.19 10.96 C0.55 8.08, 2.33 5.22, 4.36 3.37 C6.39 1.52, 10.95 0.4, 12.36 -0.12 C13.78 -0.65, 12.82 -0.12, 12.83 0.23" stroke="#e03131" stroke-width="2" fill="none"></path></g></svg>